<?xml version="1.0" standalone="no"?>
<!DOCTYPE svg PUBLIC "-//W3C//DTD SVG 20010904//EN"
 "http://www.w3.org/TR/2001/REC-SVG-20010904/DTD/svg10.dtd">
<svg version="1.0" xmlns="http://www.w3.org/2000/svg"
 width="256.000000pt" height="256.000000pt" viewBox="0 0 256.000000 256.000000"
 preserveAspectRatio="xMidYMid meet">
<metadata>
Created by potrace 1.14, written by Peter Selinger 2001-2017
</metadata>
<g transform="translate(0.000000,256.000000) scale(0.100000,-0.100000)"
fill="#000000" stroke="none">
<path d="M1195 2079 c-22 -5 -83 -14 -135 -19 -52 -5 -107 -14 -122 -21 -17
-7 -47 -8 -80 -4 -29 4 -85 7 -123 8 -67 2 -74 0 -122 -36 -45 -33 -113 -119
-113 -142 0 -5 14 12 31 38 55 84 112 120 209 133 39 5 51 4 46 -5 -4 -6 -19
-11 -34 -11 -65 -1 -190 -90 -229 -164 -12 -22 -17 -26 -24 -15 -5 9 -9 -12
-9 -58 0 -72 -2 -78 -45 -107 -17 -12 -18 -17 -7 -41 8 -18 9 -24 1 -19 -6 3
-17 22 -25 40 -10 23 -21 34 -35 34 -11 0 -17 -4 -14 -10 8 -13 -8 -13 -21 0
-17 17 -97 23 -117 8 -10 -8 -25 -47 -37 -98 -12 -47 -23 -92 -25 -101 -4 -10
4 -20 20 -27 25 -11 25 -13 11 -34 -18 -26 -20 -38 -6 -38 5 0 17 15 26 33 9
17 24 41 34 52 10 11 23 37 30 58 6 20 18 37 26 37 8 0 29 7 46 16 28 15 32
15 40 0 5 -9 17 -16 27 -16 32 0 63 -45 67 -98 2 -27 11 -69 20 -93 10 -26 20
-96 25 -174 5 -71 10 -138 11 -148 2 -15 -17 -26 -97 -58 -55 -21 -106 -39
-113 -39 -8 0 -25 9 -39 20 -24 19 -26 19 -49 2 -13 -9 -24 -24 -24 -33 0 -18
53 -69 72 -69 9 0 8 3 -2 10 -13 8 -12 11 5 24 30 23 220 96 246 96 31 -1 60
-41 67 -93 5 -41 6 -42 13 -13 6 20 4 35 -4 45 -7 8 3 5 21 -8 17 -12 32 -24
32 -26 0 -2 -29 -33 -63 -67 -35 -35 -76 -83 -91 -107 -20 -31 -30 -40 -36
-31 -4 7 -13 9 -19 5 -8 -4 -9 -11 -3 -18 12 -14 -54 -144 -80 -161 -20 -12
-35 -2 -21 16 22 28 76 131 65 125 -18 -12 -101 -157 -114 -199 -9 -29 -19
-43 -39 -50 -16 -5 -34 -23 -43 -43 -22 -46 -20 -63 4 -37 12 12 27 22 34 22
8 0 17 10 21 22 4 15 8 18 12 10 3 -7 -2 -21 -11 -31 -18 -20 -21 -36 -6 -26
5 3 10 2 10 -3 0 -5 9 -12 20 -15 11 -3 20 -11 20 -17 0 -9 -3 -10 -14 -1 -11
9 -15 7 -19 -9 -6 -23 -27 -27 -27 -5 0 24 -18 18 -37 -12 -10 -16 -22 -31
-27 -34 -13 -10 1 -27 35 -44 57 -30 93 6 150 149 14 33 44 80 71 108 45 49
88 137 88 181 0 23 65 112 89 122 11 4 11 3 2 -9 -14 -17 -5 -40 11 -30 6 4 8
2 5 -4 -4 -5 6 -22 23 -35 16 -14 30 -27 30 -29 0 -15 132 -136 155 -142 29
-7 85 9 85 25 0 5 7 9 15 9 13 0 71 45 146 115 27 24 27 24 23 2 -4 -21 -4
-21 5 -2 5 11 10 40 11 65 0 36 3 42 11 27 8 -13 7 -38 -1 -86 -15 -78 -7
-102 39 -121 67 -27 133 52 162 194 l16 79 99 37 c122 45 135 52 168 90 33 40
40 80 27 176 -6 43 -12 120 -14 169 -3 50 -2 68 2 40 l6 -50 105 3 c58 1 119
5 135 8 37 8 67 28 57 39 -4 5 -2 5 4 2 13 -8 62 34 57 49 -2 7 20 16 58 23
61 10 99 32 99 57 0 7 -12 26 -26 43 -32 38 -79 48 -150 31 -30 -7 -57 -10
-61 -7 -11 12 48 66 115 106 62 38 63 38 106 24 l43 -14 5 -93 c3 -62 10 -100
21 -117 28 -43 58 -142 52 -175 -6 -41 13 -58 49 -44 14 5 26 14 26 19 0 6 14
26 30 44 17 19 30 38 30 42 0 8 -33 3 -62 -9 -13 -6 -20 4 -37 50 -29 76 -22
88 19 31 57 -80 67 -37 20 87 -17 44 -44 104 -60 133 -33 59 -35 68 -20 58 13
-8 60 21 60 36 0 5 -21 32 -46 59 -37 40 -50 48 -72 44 -32 -6 -74 -43 -68
-60 7 -19 -17 -24 -38 -8 -11 7 -23 11 -27 8 -5 -3 -9 -2 -9 3 0 12 64 53 83
53 8 0 19 5 22 10 3 6 17 10 31 10 16 0 23 4 18 11 -3 6 -22 9 -43 6 -26 -3
-53 3 -96 24 -33 15 -85 30 -115 33 l-55 5 50 -12 49 -12 -74 -13 c-41 -8
-103 -27 -137 -43 -71 -33 -73 -34 -73 -16 0 13 74 48 155 75 17 6 23 11 15
11 -9 1 -67 -17 -130 -38 l-115 -39 -5 70 c-4 62 -8 73 -36 98 -43 38 -129 68
-243 85 -107 16 -128 17 -186 4z m305 -40 c36 -12 74 -28 85 -35 26 -18 16
-18 -21 0 -122 62 -365 72 -429 18 -20 -17 -20 -17 -1 6 29 34 70 42 191 38
80 -3 128 -10 175 -27z m-385 5 c-6 -2 -37 -7 -69 -12 -55 -7 -59 -9 -70 -41
-15 -48 -36 -58 -76 -39 -29 14 -30 16 -10 21 13 3 23 0 27 -9 7 -19 29 -18
37 2 9 23 7 36 -4 29 -5 -3 -17 -2 -27 3 -15 9 -14 11 5 21 11 6 45 15 74 20
55 9 131 13 113 5z m63 -34 c-16 -22 -24 -27 -30 -18 -5 8 0 20 13 31 33 27
42 20 17 -13z m217 18 c71 -10 200 -46 192 -54 -3 -3 -33 5 -68 17 -41 15 -87
22 -128 22 -39 0 -58 3 -50 8 10 6 5 9 -14 9 -16 0 -26 -4 -22 -10 4 -6 -8
-10 -29 -10 -40 0 -49 -16 -13 -23 13 -3 8 -5 -15 -6 -35 -1 -38 -4 -38 -29 0
-15 7 -38 16 -50 19 -27 74 -58 74 -41 0 6 -9 13 -20 16 -25 7 -25 12 -2 29
22 17 148 19 158 2 5 -8 -9 -10 -54 -5 -65 5 -87 -4 -52 -23 11 -6 18 -14 16
-19 -3 -4 24 -36 60 -72 36 -35 78 -84 94 -109 26 -41 29 -52 25 -110 -2 -36
-4 -71 -4 -77 -1 -7 -6 -13 -11 -13 -7 0 -8 28 -4 79 6 70 4 83 -14 113 -12
19 -31 43 -43 54 l-21 19 20 -35 c21 -38 41 -107 22 -80 -5 8 -10 22 -10 30 0
8 -23 39 -52 69 -28 30 -43 51 -34 48 22 -9 20 -4 -11 24 -14 13 -23 18 -19
12 11 -19 2 -16 -54 17 -28 17 -55 30 -60 30 -31 0 -66 109 -40 125 6 4 8 10
5 15 -3 5 0 12 6 16 8 4 9 3 5 -4 -4 -7 -1 -12 8 -12 8 0 18 5 21 10 3 6 1 10
-5 10 -6 0 -8 4 -5 10 7 12 78 11 170 -2z m-303 -37 c-5 -36 25 -106 68 -154
18 -21 30 -40 28 -43 -7 -7 -83 33 -99 52 -6 8 -22 14 -34 14 -13 0 -25 7 -29
15 -4 11 -21 15 -63 14 -41 0 -52 -3 -38 -9 37 -14 50 -38 35 -64 -7 -13 -10
-30 -8 -37 2 -6 -6 -22 -18 -34 -26 -26 -23 -70 3 -60 11 4 13 1 9 -11 -4 -10
-2 -14 6 -11 7 2 12 14 11 26 -2 11 2 21 9 21 6 0 8 -3 5 -7 -4 -3 -2 -12 3
-18 7 -9 -3 -25 -36 -58 -43 -44 -46 -49 -39 -84 4 -21 15 -49 25 -63 9 -14
20 -34 24 -45 3 -11 26 -31 51 -44 48 -25 60 -44 23 -37 -13 3 -40 8 -61 11
-21 3 -46 9 -55 12 -26 8 66 -55 123 -84 36 -19 65 -26 105 -26 53 0 138 24
169 47 22 17 61 84 61 106 0 11 4 20 9 20 11 0 21 -25 21 -54 0 -12 6 -28 13
-35 17 -17 -29 -52 -60 -45 -14 4 -32 -2 -48 -14 -15 -12 -52 -28 -82 -37
-107 -31 -214 7 -340 120 -58 52 -63 60 -63 98 -1 40 -1 41 -16 22 -15 -20
-15 -64 1 -112 6 -18 4 -23 -11 -23 -14 0 -15 -3 -6 -12 7 -7 12 -20 12 -29 0
-16 58 -80 138 -153 21 -19 51 -33 94 -42 l63 -13 -58 4 c-32 2 -64 8 -70 13
-7 5 -29 15 -49 21 -48 16 -97 72 -137 156 -25 52 -31 76 -26 101 11 60 33
100 69 125 24 16 34 29 30 39 -34 79 -24 157 27 213 34 36 30 47 -7 22 -25
-16 -28 -16 -69 5 -41 21 -43 23 -27 40 36 38 87 60 136 60 30 0 56 6 66 15
15 14 18 13 30 -10 8 -14 18 -24 24 -21 11 4 12 6 1 47 -4 17 0 33 15 52 29
36 48 35 42 -2z m357 1 c24 -4 46 -13 49 -21 4 -11 -1 -12 -19 -7 -65 18 -82
19 -77 5 3 -8 12 -13 21 -11 14 2 34 -15 26 -23 -2 -2 -26 3 -54 10 -27 8 -40
14 -27 14 43 2 11 21 -34 21 -24 0 -44 5 -44 10 0 11 91 12 159 2z m-664 -32
c-11 -5 -27 -9 -35 -9 -13 -1 -13 0 0 9 8 5 24 9 35 9 l20 0 -20 -9z m513 -7
c2 -8 -6 -13 -22 -13 -28 0 -43 15 -24 23 20 8 41 3 46 -10z m-578 -13 c-8 -5
-19 -10 -25 -10 -5 0 -3 5 5 10 8 5 20 10 25 10 6 0 3 -5 -5 -10z m120 2 c0
-4 -22 -13 -50 -19 -64 -15 -120 -61 -155 -125 -22 -41 -28 -64 -29 -127 -1
-63 2 -80 18 -98 11 -13 25 -23 32 -23 7 0 15 -4 18 -9 4 -5 -2 -8 -11 -6 -10
2 -23 4 -30 4 -7 1 -33 21 -58 45 -45 42 -46 44 -36 81 14 50 86 169 128 208
47 46 173 96 173 69z m-200 -47 c0 -3 -15 -25 -32 -49 -18 -24 -46 -68 -62
-97 -25 -47 -30 -51 -37 -34 -4 11 -8 31 -8 44 -1 34 38 111 55 111 11 0 8 -9
-11 -34 -27 -36 -45 -106 -27 -106 6 0 13 18 17 39 4 26 21 55 48 85 36 41 57
56 57 41z m804 -14 c3 -4 -6 -6 -19 -3 -14 2 -25 6 -25 8 0 8 39 4 44 -5z
m623 -7 c-3 -3 -12 -4 -19 -1 -8 3 -5 6 6 6 11 1 17 -2 13 -5z m-662 -20 l40
-15 -35 6 c-19 3 -39 10 -44 15 -13 13 -8 12 39 -6z m235 6 c0 -5 -7 -7 -15
-4 -8 4 -15 8 -15 10 0 2 7 4 15 4 8 0 15 -4 15 -10z m-27 -23 c3 2 8 0 12 -6
7 -12 -42 -15 -69 -5 -30 11 -16 22 18 14 19 -4 37 -6 39 -3z m327 -2 c0 -8
-9 -15 -20 -15 -12 0 -30 -9 -42 -20 -12 -11 -28 -20 -35 -20 -20 0 21 41 55
56 37 17 42 16 42 -1z m187 -1 c-3 -3 -12 -4 -19 -1 -8 3 -5 6 6 6 11 1 17 -2
13 -5z m-1464 -59 c-10 -14 -22 -25 -27 -25 -5 0 -2 8 7 18 10 10 17 24 17 31
0 7 5 9 10 6 6 -4 3 -16 -7 -30z m787 25 c8 -5 11 -10 5 -10 -5 0 -17 5 -25
10 -8 5 -10 10 -5 10 6 0 17 -5 25 -10z m222 -22 c-9 -9 -12 -7 -12 12 0 19 3
21 12 12 9 -9 9 -15 0 -24z m-97 -16 c31 -5 40 -12 40 -27 0 -32 -40 -30 -95
5 -28 18 -50 34 -50 37 0 3 15 2 33 -1 17 -4 50 -10 72 -14z m-211 -21 c42
-44 27 -61 -17 -19 -32 31 -38 48 -17 48 3 0 19 -13 34 -29z m-103 -11 c13 -6
37 -30 54 -53 l29 -42 -33 28 c-18 15 -37 27 -42 27 -17 0 -24 2 -72 20 -55
21 -85 15 -111 -21 -8 -13 -18 -20 -21 -17 -12 12 8 36 48 56 44 23 101 24
148 2z m444 0 c-3 -5 -11 -10 -16 -10 -6 0 -7 5 -4 10 3 6 11 10 16 10 6 0 7
-4 4 -10z m71 -17 c-10 -10 -19 5 -10 18 6 11 8 11 12 0 2 -7 1 -15 -2 -18z
m286 -8 c-7 -25 -9 -26 -15 -11 -4 10 -2 25 4 33 16 19 20 12 11 -22z m57 -7
c1 -5 -3 -8 -9 -8 -5 0 -10 12 -9 28 0 24 1 25 9 7 5 -11 9 -23 9 -27z m-439
-29 c0 -10 -4 -19 -10 -19 -5 0 -10 4 -10 9 0 5 -3 17 -6 25 -5 12 -2 15 10
10 9 -3 16 -15 16 -25z m70 21 c0 -5 -5 -10 -11 -10 -5 0 -7 5 -4 10 3 6 8 10
11 10 2 0 4 -4 4 -10z m271 -27 c-5 -11 -17 -25 -25 -33 -13 -10 -16 -10 -16
4 0 9 4 16 9 16 5 0 12 12 15 26 5 19 10 24 17 17 8 -8 8 -17 0 -30z m-461 12
c0 -8 -2 -15 -4 -15 -2 0 -6 7 -10 15 -3 8 -1 15 4 15 6 0 10 -7 10 -15z
m-1291 -2 c-9 -2 -21 -14 -27 -26 -10 -22 -11 -22 -11 -1 -1 26 7 34 33 33 15
-1 16 -3 5 -6z m1141 -3 c0 -5 -2 -10 -4 -10 -3 0 -8 5 -11 10 -3 6 -1 10 4
10 6 0 11 -4 11 -10z m-355 -81 c16 -39 31 -67 33 -61 2 8 9 8 23 -1 21 -13
24 -28 8 -44 -37 -37 -143 120 -113 168 12 19 22 6 49 -62z m223 12 c7 -4 -14
-5 -48 -3 -41 3 -66 0 -78 -9 -13 -10 -12 -8 3 9 17 21 25 23 65 17 25 -4 51
-10 58 -14z m-736 -42 c6 -63 33 -88 93 -89 36 -1 38 -2 22 -14 -24 -19 -55
-10 -96 28 l-33 31 6 -40 c13 -83 14 -95 4 -95 -5 0 -16 16 -24 36 -12 29 -13
49 -4 110 5 42 10 77 10 80 0 2 4 4 9 4 5 0 11 -23 13 -51z m545 19 c-3 -8 -6
-5 -6 6 -1 11 2 17 5 13 3 -3 4 -12 1 -19z m336 -34 c20 -26 37 -54 36 -63 0
-12 -2 -11 -9 4 -5 11 -9 14 -9 8 -1 -8 -14 -13 -31 -13 -26 0 -30 4 -35 38
-3 20 -8 45 -10 55 -6 31 19 18 58 -29z m251 38 c2 -4 -9 -30 -26 -57 -23 -37
-32 -65 -36 -113 l-5 -65 -18 24 c-24 31 -23 75 1 119 11 19 26 50 35 68 14
30 38 42 49 24z m-74 -13 c0 -21 -32 -79 -41 -74 -9 6 -5 25 14 63 11 23 27
30 27 11z m714 -15 c3 -9 2 -23 -4 -32 -8 -14 -9 -14 -10 -2 0 13 -1 13 -10 0
-11 -17 -13 -6 -4 28 7 26 19 29 28 6z m-1024 -14 c8 -5 11 -10 5 -10 -5 0
-17 5 -25 10 -8 5 -10 10 -5 10 6 0 17 -5 25 -10z m441 -17 c-8 -15 -10 -15
-11 -2 0 17 10 32 18 25 2 -3 -1 -13 -7 -23z m199 13 c0 -3 -4 -8 -10 -11 -5
-3 -10 -1 -10 4 0 6 5 11 10 11 6 0 10 -2 10 -4z m-1335 -16 c3 -5 1 -10 -4
-10 -6 0 -11 5 -11 10 0 6 2 10 4 10 3 0 8 -4 11 -10z m645 -75 c0 -12 -10
-30 -22 -41 -18 -15 -20 -15 -9 -2 7 10 11 33 9 52 -3 28 -1 33 9 24 7 -6 13
-20 13 -33z m490 38 c0 -5 -12 -13 -26 -20 -26 -12 -26 -12 -9 7 18 20 35 26
35 13z m-276 -48 c-7 -28 10 -34 24 -9 5 10 14 14 21 9 9 -5 7 -11 -6 -21 -17
-13 -17 -13 1 -14 20 0 20 0 0 -14 -10 -8 -21 -10 -22 -5 -2 5 -8 7 -12 4 -8
-5 -50 32 -50 45 0 4 19 15 48 29 1 0 0 -10 -4 -24z m86 -1 c0 -8 -4 -14 -9
-14 -12 0 -32 26 -25 33 10 9 34 -4 34 -19z m-350 -28 c0 -5 -7 -3 -15 4 -8 7
-15 20 -15 28 0 13 3 12 15 -4 8 -10 15 -23 15 -28z m-461 -155 c44 -83 81
-155 81 -160 0 -6 5 -11 10 -11 6 0 10 -9 10 -20 0 -10 8 -24 18 -29 15 -9 14
-10 -7 -11 -66 -1 -219 108 -270 191 -31 51 -29 129 4 157 14 12 25 17 25 12
0 -6 5 -10 10 -10 6 0 10 7 10 15 0 44 36 -1 109 -134z m825 104 c2 -22 10
-55 17 -73 17 -49 7 -149 -21 -204 -13 -27 -25 -46 -27 -45 -1 2 6 34 17 71
26 94 18 139 -43 220 -6 7 2 23 20 43 15 17 29 30 30 29 1 -1 4 -19 7 -41z
m-340 -20 c-31 -24 -82 -17 -57 8 3 4 22 7 42 7 33 0 34 -1 15 -15z m1144 -45
c-27 -17 -50 -30 -54 -30 -14 0 11 22 44 40 57 30 63 23 10 -10z m-1759 -168
c11 -17 37 -39 56 -49 19 -10 71 -39 116 -65 44 -27 90 -48 100 -48 10 0 19
-4 19 -9 0 -16 -97 -33 -142 -26 -58 9 -135 52 -165 91 -28 37 -49 137 -39
180 l8 29 12 -36 c7 -20 23 -50 35 -67z m902 28 c-5 -3 -11 -21 -15 -41 -9
-48 -59 -95 -116 -108 -56 -13 -73 -14 -66 -2 3 5 -2 12 -12 16 -14 5 -12 11
18 35 37 31 57 39 43 18 -8 -15 55 35 106 82 25 24 36 28 42 19 4 -8 4 -16 0
-19z m-216 -10 c-3 -5 -20 -11 -38 -14 -77 -12 -117 -14 -111 -5 3 5 22 9 42
10 20 1 48 5 62 9 36 11 52 12 45 0z m325 -119 c-18 -71 -35 -92 -75 -89 l-33
2 27 40 c36 53 81 137 83 156 1 8 3 -3 5 -24 3 -22 -1 -60 -7 -85z m-650 89
c0 -10 -38 -1 -45 10 -2 4 7 5 20 2 14 -2 25 -8 25 -12z m323 -15 c-15 -41
-143 -67 -203 -43 l-35 15 71 6 c39 4 88 13 110 21 52 19 65 19 57 1z m367
-54 c0 -35 -6 -55 -21 -72 l-21 -24 16 25 c9 13 16 46 16 72 0 27 2 48 5 48 3
0 5 -22 5 -49z m-680 29 c12 -8 9 -10 -12 -10 -16 0 -28 5 -28 10 0 13 20 13
40 0z m50 -37 c0 -5 -5 -15 -10 -23 -9 -13 -11 -13 -19 0 -5 8 -7 18 -5 22 6
10 34 11 34 1z m170 -100 c0 -26 10 -27 14 -1 3 19 16 38 27 38 10 0 -15 -55
-30 -64 -4 -3 -19 3 -31 14 -19 16 -20 22 -10 35 16 20 30 10 30 -22z m128
-82 c6 -61 -42 -89 -101 -59 -21 10 -37 22 -35 26 2 4 18 31 37 60 l33 53 32
-24 c21 -17 32 -35 34 -56z m46 20 c8 -12 -3 -41 -15 -41 -5 0 -9 11 -9 25 0
25 14 34 24 16z m-26 -132 c2 -14 -6 -37 -18 -52 -24 -31 -43 -36 -33 -9 3 9
3 14 -1 10 -4 -3 -9 -14 -10 -25 -2 -10 -13 -19 -26 -21 -26 -4 -26 -3 24 71
41 60 59 67 64 26z m-991 -253 c-3 -7 -9 -34 -12 -60 -4 -25 -12 -49 -18 -53
-7 -4 -8 5 -3 28 4 19 10 49 13 67 3 17 10 32 15 32 6 0 8 -6 5 -14z m15 -108
c-9 -9 -12 -7 -12 12 0 19 3 21 12 12 9 -9 9 -15 0 -24z"/>
<path d="M1248 2023 c7 -3 16 -2 19 1 4 3 -2 6 -13 5 -11 0 -14 -3 -6 -6z"/>
<path d="M1315 1840 c3 -5 11 -10 16 -10 6 0 7 5 4 10 -3 6 -11 10 -16 10 -6
0 -7 -4 -4 -10z"/>
<path d="M635 1300 c16 -60 50 -113 102 -160 31 -28 58 -49 60 -46 3 2 -21 35
-52 72 -32 37 -71 88 -87 113 -20 30 -28 37 -23 21z"/>
<path d="M1414 1039 c-19 -22 -19 -22 4 -10 12 6 22 16 22 21 0 15 -5 12 -26
-11z"/>
<path d="M387 1543 c-2 -5 -5 -27 -6 -50 0 -23 -1 -46 -2 -50 -5 -28 3 -53 16
-53 8 0 15 5 15 11 0 6 7 9 15 5 9 -3 15 0 15 10 0 8 5 12 10 9 18 -11 23 25
6 50 -10 16 -14 35 -10 52 3 16 2 23 -3 17 -4 -6 -18 -13 -31 -17 -18 -4 -22
-2 -18 9 6 15 0 20 -7 7z"/>
<path d="M44 1333 c-3 -32 -11 -67 -17 -78 -10 -19 -10 -19 -17 0 -5 13 -8 4
-8 -27 0 -27 2 -48 5 -48 14 0 63 43 68 60 4 11 10 20 15 20 11 0 -8 -48 -28
-72 -9 -11 -11 -18 -4 -18 6 0 18 10 27 23 l16 22 -3 -25 c-3 -22 -9 -26 -48
-30 -40 -5 -42 -6 -17 -11 16 -4 44 -3 63 1 19 4 36 4 39 0 8 -13 -6 -18 -53
-18 -48 -1 -82 -10 -82 -21 0 -9 63 -22 115 -24 30 -2 30 -2 30 55 0 48 4 59
25 76 14 11 31 36 39 57 13 37 13 37 -29 76 -35 33 -48 39 -85 39 l-44 0 -7
-57z m80 30 c4 -9 2 -19 -3 -22 -5 -3 -11 -17 -14 -31 -4 -24 -4 -24 -6 3 0
16 -11 37 -23 48 l-23 18 31 1 c21 0 34 -6 38 -17z m50 -59 c9 -3 16 -14 16
-23 0 -13 -2 -13 -9 -2 -5 8 -18 12 -30 8 -14 -3 -21 0 -21 9 0 15 18 18 44 8z
m-48 -81 c-11 -11 -17 4 -9 23 7 18 8 18 11 1 2 -10 1 -21 -2 -24z"/>
<path d="M2410 1272 c0 -7 -6 -12 -14 -12 -8 0 -18 -5 -21 -11 -13 -21 -33
-122 -27 -138 4 -13 2 -13 -15 2 -19 16 -21 16 -38 -3 -10 -11 -13 -20 -7 -20
6 0 14 5 17 10 10 16 25 11 25 -8 0 -23 -19 -42 -42 -42 -27 0 -35 -30 -13
-46 27 -20 79 -17 106 5 19 16 22 22 12 32 -9 9 -13 9 -13 2 0 -6 -7 -19 -16
-28 -12 -12 -19 -13 -30 -4 -15 12 -9 33 7 23 6 -3 18 0 27 8 9 8 28 15 41 16
21 1 44 23 46 42 0 3 4 10 7 16 4 6 -4 44 -17 84 -25 73 -35 94 -35 72z m19
-67 l0 -20 -9 20 c-5 11 -9 27 -9 35 -1 13 0 13 9 0 5 -8 9 -24 9 -35z m-36
-25 c3 -11 1 -18 -4 -14 -5 3 -9 12 -9 20 0 20 7 17 13 -6z m16 -59 c8 -5 10
-15 6 -22 -4 -8 3 -3 14 11 23 29 29 15 6 -17 -11 -15 -23 -20 -47 -18 -18 1
-32 6 -30 11 11 37 15 44 25 44 7 0 18 -4 26 -9z"/>
<path d="M43 980 c0 -36 2 -50 4 -32 2 17 2 47 0 65 -2 17 -4 3 -4 -33z"/>
</g>
</svg>
